#!OML:ASF F:\Work\Patient Classification 1\justin\Session 1\justin.ASF
:FULLY-SPECIFIED
:DEGREES
2333
root -0.206734 15.6437 5.06675 8.00228 57.1011 6.10575
lowerback 20.3395 -1.89143 0.752173
upperback 2.79319 -2.01459 1.87947
thorax -8.29599 -0.905026 2.14842
lowerneck -4.85129 -14.4707 -22.0696
upperneck -3.58831 -18.66 22.7943
head 4.1453 -8.97299 9.07502
rclavicle -5.24792e-014 -3.18055e-015
rhumerus -2.93645 -24.4571 -36.3355
rradius 135.538
rwrist -27.85
rhand -16.7691 25.7478
rfingers 7.12502
rthumb 9.45813 -4.01993
lclavicle -5.24792e-014 -3.18055e-015
lhumerus -10.1845 -25.1571 92.8702
lradius 132.344
lwrist 4.17903
lhand -14.5078 5.25424
lfingers 7.12502
lthumb 11.6394 34.911
rfemur -42.5982 -13.0622 -0.47827
rtibia 60.3196
rfoot -11.4572 0.783187
rtoes -21.7873
lfemur 1.13968 -1.50635 5.45669
ltibia 32.9969
lfoot -21.7248 -6.60605
ltoes -26.8569
2334
root -0.148368 15.621 4.99189 6.85026 56.5768 5.37224
lowerback 20.2667 -2.0356 0.708711
upperback 2.71109 -2.2125 1.93388
thorax -8.33705 -0.998844 2.28539
lowerneck -4.97203 -14.3245 -21.4991
upperneck -3.24735 -18.489 22.4089
head 4.12525 -8.88582 8.88424
rclavicle -7.4743e-014 1.66979e-014
rhumerus -3.88421 -24.3508 -37.2736
rradius 137.678
rwrist -28.7109
rhand -16.6991 26.5658
rfingers 7.12502
rthumb 9.52568 -3.19884
lclavicle -7.4743e-014 1.66979e-014
lhumerus -9.78215 -24.7616 92.529
lradius 132.439
lwrist 4.29318
lhand -14.5921 5.10353
lfingers 7.12502
lthumb 11.5582 34.7648
rfemur -42.1473 -12.9012 -0.41582
rtibia 60.0865
rfoot -11.4255 1.1408
rtoes -23.9354
lfemur 1.80934 -0.962356 5.44234
ltibia 33.5749
lfoot -23.1533 -5.91245
ltoes -27.4591
2335
root -0.0907012 15.5995 4.90231 5.84928 56.0825 4.72137
lowerback 20.2655 -2.16469 0.862841
upperback 2.50609 -2.35682 1.88798
thorax -8.56537 -1.07399 2.19404
lowerneck -4.64766 -14.1087 -20.7283
upperneck -3.08514 -18.2876 21.9502
head 3.94867 -8.81485 8.68002
rclavicle 3.51849e-014 -3.97569e-015
rhumerus -5.13176 -24.1908 -38.1209
rradius 139.57
rwrist -29.2829
rhand -16.8054 26.9193
rfingers 7.12502
rthumb 9.42313 -2.85009
lclavicle 3.51849e-014 -3.97569e-015
lhumerus -9.66404 -24.6333 92.2352
lradius 132.549
lwrist 4.46131
lhand -15.1481 4.75692
lfingers 7.12502
lthumb 11.0219 34.4476
rfemur -41.862 -12.9725 -0.345675
rtibia 59.8992
rfoot -11.0771 1.45926
rtoes -25.4591
lfemur 2.37026 -0.247245 5.45857
ltibia 34.1747
lfoot -24.4297 -5.60695
ltoes -27.5619
2336
root -0.0333841 15.5746 4.80936 4.98875 55.5229 4.19407
lowerback 20.116 -2.32241 0.719209
upperback 2.40616 -2.59434 1.97038
thorax -8.57681 -1.18333 2.42635
lowerneck -4.38558 -13.8859 -20.2147
upperneck -2.98864 -18.0489 21.6561
head 3.8022 -8.71873 8.56829
rclavicle -7.7526e-014 1.03368e-014
rhumerus -5.7856 -24.0623 -39.0576
rradius 141.082
rwrist -29.8162
rhand -16.6145 27.1516
rfingers 7.12502
rthumb 9.60728 -2.60931
lclavicle -7.7526e-014 1.03368e-014
lhumerus -9.23197 -24.2205 91.9664
lradius 132.448
lwrist 4.56647
lhand -15.7021 4.3951
lfingers 7.12502
lthumb 10.4875 34.1135
rfemur -41.6309 -12.9256 -0.387879
rtibia 59.7195
rfoot -10.4987 1.85684
rtoes -24.7051
lfemur 2.92856 0.429759 5.39281
ltibia 34.7611
lfoot -25.3641 -5.2091
ltoes -27.2895
2337
root 0.0235219 15.5434 4.72401 4.14053 55.0304 3.71387
lowerback 19.7874 -2.49284 0.33708
upperback 2.45584 -2.89231 2.15853
thorax -8.30459 -1.31549 2.90828
lowerneck -4.38369 -13.6717 -20.3191
upperneck -2.72916 -17.7991 21.9181
head 3.86891 -8.59039 8.70433
rclavicle 1.39149e-014 -1.03368e-014
rhumerus -6.00031 -23.9701 -40.036
rradius 142.436
rwrist -30.3052
rhand -16.343 27.1359
rfingers 7.12502
rthumb 9.86925 -2.61279
lclavicle 1.39149e-014 -1.03368e-014
lhumerus -8.53572 -23.6637 91.6693
lradius 132.37
lwrist 4.7675
lhand -15.7179 4.27293
lfingers 7.12502
lthumb 10.4723 33.9921
rfemur -41.2717 -12.7708 -0.513365
rtibia 59.4773
rfoot -10.1991 2.28868
rtoes -25.4074
lfemur 3.50979 0.898504 5.32027
ltibia 35.3339
lfoot -26.0763 -4.70697
ltoes -26.8717
2338
root 0.0779445 15.5136 4.63671 3.25245 54.59 3.22852
lowerback 19.4731 -2.59497 -0.00951538
upperback 2.53408 -3.0892 2.35829
thorax -8.0096 -1.40238 3.35187
lowerneck -4.52334 -13.5183 -21.1086
upperneck -2.0877 -17.6707 22.8225
head 4.23498 -8.49819 9.11838
rclavicle -2.84262e-014 4.45278e-014
rhumerus -6.47304 -24.0233 -40.7852
rradius 143.678
rwrist -30.6502
rhand -16.0325 27.075
rfingers 7.12502
rthumb 10.1688 -2.65923
lclavicle -2.84262e-014 4.45278e-014
lhumerus -7.92643 -23.3247 91.4913
lradius 132.454
lwrist 5.19929
lhand -15.2839 4.35383
lfingers 7.12502
lthumb 10.8909 34.0514
rfemur -40.8003 -12.4524 -0.654571
rtibia 59.1239
rfoot -9.87368 2.54397
rtoes -26.0691
lfemur 4.07795 1.3758 5.30557
ltibia 35.9181
lfoot -26.8213 -4.26143
ltoes -28.0104
2339
root 0.130931 15.4859 4.53857 2.71232 54.148 3.13355
lowerback 19.2881 -2.63899 -0.456582
upperback 2.51768 -3.23612 2.47491
thorax -7.88675 -1.46211 3.7594
lowerneck -4.45425 -13.7143 -20.4846
upperneck -1.78028 -17.9915 22.2234
head 4.25054 -8.66405 8.77312
rclavicle -1.5704e-014 -7.95139e-015
rhumerus -7.32627 -24.228 -41.2765
rradius 144.91
rwrist -30.949
rhand -15.498 26.3415
rfingers 7.12502
rthumb 10.6844 -3.36679
lclavicle -1.5704e-014 -7.95139e-015
lhumerus -7.52002 -23.2601 91.4934
lradius 132.574
lwrist 5.52368
lhand -15.0447 4.55431
lfingers 7.12502
lthumb 11.1216 34.2396
rfemur -40.2587 -11.9982 -1.13444
rtibia 58.6061
rfoot -9.72039 2.90315
rtoes -27.2216
lfemur 4.55549 1.8615 4.98703
ltibia 36.4818
lfoot -28.1865 -3.40866
ltoes -31.0836
2340
root 0.180866 15.4543 4.43794 2.25137 53.6838 3.02828
lowerback 19.1213 -2.70267 -0.916094
upperback 2.46497 -3.40954 2.60028
thorax -7.80706 -1.53381 4.19207
lowerneck -3.93946 -13.4595 -20.5481
upperneck -1.94724 -17.7287 22.6078
head 4.11456 -8.56491 8.99034
rclavicle -7.99114e-014 4.77083e-015
rhumerus -8.11275 -24.2297 -41.8495
rradius 145.998
rwrist -30.9486
rhand -15.1322 25.2979
rfingers 7.12502
rthumb 11.0372 -4.39191
lclavicle -7.99114e-014 4.77083e-015
lhumerus -7.1835 -23.1156 91.5309
lradius 132.936
lwrist 5.58165
lhand -14.969 4.8856
lfingers 7.12502
lthumb 11.1947 34.5669
rfemur -39.786 -11.5013 -1.64122
rtibia 57.9924
rfoot -9.63886 3.38838
rtoes -27.3778
lfemur 4.95671 2.5027 4.76021
ltibia 36.9432
lfoot -29.4405 -2.74901
ltoes -32.9573
2341
root 0.231545 15.4272 4.34006 1.33789 53.2576 2.38905
lowerback 18.9367 -2.89141 -1.12442
upperback 2.42567 -3.68679 2.79998
thorax -7.70171 -1.66254 4.58507
lowerneck -3.84046 -13.2202 -20.4696
upperneck -1.73445 -17.4583 22.7614
head 4.11441 -8.43401 9.07844
rclavicle 2.3059e-014 -7.95139e-015
rhumerus -8.7781 -23.9162 -42.6031
rradius 146.601
rwrist -30.8012
rhand -14.8818 26.0649
rfingers 7.12502
rthumb 11.2787 -3.6119
lclavicle 2.3059e-014 -7.95139e-015
lhumerus -6.92506 -22.7903 91.4293
lradius 133.358
lwrist 5.68423
lhand -14.675 5.19003
lfingers 7.12502
lthumb 11.4782 34.8558
rfemur -39.314 -11.0682 -1.7154
rtibia 57.384
rfoot -9.23241 3.65168
rtoes -26.1147
lfemur 5.47319 3.16072 5.01557
ltibia 37.2486
lfoot -30.2374 -2.90832
ltoes -32.9234
2342
root 0.287743 15.4157 4.23889 0.431879 53.0135 1.84728
lowerback 18.7472 -3.21365 -1.34167
upperback 2.4017 -4.14519 2.95239
thorax -7.55939 -1.881 4.97174
lowerneck -3.5652 -13.0118 -19.8208
upperneck -1.68485 -17.2243 22.3525
head 3.92731 -8.34121 8.90207
rclavicle -1.27222e-014 0
rhumerus -9.45506 -23.575 -43.4332
rradius 146.973
rwrist -30.987
rhand -14.2805 27.605
rfingers 7.12502
rthumb 11.8587 -2.0392
lclavicle -1.27222e-014 0
lhumerus -6.43725 -22.4805 91.2388
lradius 133.254
lwrist 5.8421
lhand -14.0672 5.57841
lfingers 7.12502
lthumb 12.0643 35.2106
rfemur -38.6952 -10.8875 -1.76853
rtibia 56.8051
rfoot -8.40953 3.57507
rtoes -25.0774
lfemur 6.14594 3.3188 5.10104
ltibia 37.365
lfoot -30.9985 -3.68387
ltoes -31.6857
2343
root 0.3443 15.4118 4.13375 -0.12959 52.828 1.73183
lowerback 18.5346 -3.5542 -1.83056
upperback 2.46115 -4.68183 3.10065
thorax -7.2776 -2.13657 5.51469
lowerneck -4.11421 -12.6924 -20.8422
upperneck -0.630838 -16.8671 23.3707
head 4.45896 -8.10347 9.41068
rclavicle -1.39149e-014 -8.74653e-015
rhumerus -9.96177 -23.2205 -44.3453
rradius 147.419
rwrist -31.141
rhand -13.6195 28.1569
rfingers 7.12502
rthumb 12.496 -1.44952
lclavicle -1.39149e-014 -8.74653e-015
lhumerus -5.65971 -22.0071 91.0111
lradius 133.197
lwrist 6.24167
lhand -13.2581 6.21538
lfingers 7.12502
lthumb 12.8444 35.8002
rfemur -38.0031 -10.5968 -2.1285
rtibia 56.1932
rfoot -7.69793 3.31404
rtoes -25.113
lfemur 6.88146 3.30107 4.83203
ltibia 37.2892
lfoot -31.7028 -4.22506
ltoes -30.8979
2344
root 0.402046 15.4138 4.01998 -0.597161 52.5853 1.6496
lowerback 18.4207 -3.8489 -2.22082
upperback 2.45813 -5.13504 3.27529
thorax -7.12049 -2.35118 6.01864
lowerneck -4.59288 -12.5786 -21.3183
upperneck 0.167571 -16.7407 23.6335
head 4.81734 -7.99639 9.56368
rclavicle 8.68689e-014 9.54166e-015
rhumerus -10.641 -22.6906 -45.0945
rradius 147.831
rwrist -30.8021
rhand -13.6164 28.475
rfingers 7.12502
rthumb 12.499 -1.13117
lclavicle 8.68689e-014 9.54166e-015
lhumerus -5.26468 -21.6001 90.8216
lradius 133.612
lwrist 6.91936
lhand -12.8448 6.57434
lfingers 7.12502
lthumb 13.2428 36.1337
rfemur -37.3156 -10.0918 -2.57553
rtibia 55.4306
rfoot -7.94653 3.1703
rtoes -31.4842
lfemur 7.53657 3.46104 4.51064
ltibia 37.0854
lfoot -32.3088 -4.09999
ltoes -31.6369
2345
root 0.465464 15.4296 3.89233 -0.929509 52.4437 1.65509
lowerback 18.3762 -4.13406 -2.4604
upperback 2.35001 -5.55048 3.40749
thorax -7.12945 -2.54501 6.39416
lowerneck -4.64158 -12.4687 -21.2417
upperneck 0.52871 -16.6179 23.3922
head 4.86846 -7.93191 9.48579
rclavicle -1.88845e-014 3.65764e-014
rhumerus -11.7118 -22.1324 -45.6433
rradius 148.213
rwrist -30.334
rhand -13.8724 29.1362
rfingers 7.12502
rthumb 12.2522 -0.484926
lclavicle -1.88845e-014 3.65764e-014
lhumerus -5.1886 -21.5255 90.7674
lradius 134.022
lwrist 7.5064
lhand -12.8459 6.80966
lfingers 7.12502
lthumb 13.2417 36.3691
rfemur -36.6108 -9.93354 -3.03844
rtibia 54.4959
rfoot -6.42094 2.73409
rtoes -26.2144
lfemur 8.02195 3.54179 4.04174
ltibia 36.853
lfoot -32.8218 -4.33449
ltoes -31.7236
2346
root 0.529171 15.4481 3.7565 -1.01091 52.5098 2.01645
lowerback 18.424 -4.49987 -2.77278
upperback 2.25206 -6.09741 3.41992
thorax -7.16069 -2.80088 6.71711
lowerneck -4.71314 -12.2981 -20.8566
upperneck 0.836259 -16.4036 23.0159
head 4.84645 -7.82289 9.3269
rclavicle 3.04141e-014 -6.99722e-014
rhumerus -12.8075 -21.7312 -46.2524
rradius 148.571
rwrist -30.0981
rhand -13.7006 29.5659
rfingers 7.12502
rthumb 12.4178 -0.045281
lclavicle 3.04141e-014 -6.99722e-014
lhumerus -5.02177 -21.5137 90.7334
lradius 134.311
lwrist 8.13179
lhand -12.6402 7.28294
lfingers 7.12502
lthumb 13.44 36.8293
rfemur -35.715 -9.98972 -3.77108
rtibia 53.4173
rfoot -5.91727 2.46652
rtoes -30.2065
lfemur 8.42664 3.32619 3.26811
ltibia 36.6389
lfoot -33.3245 -4.54716
ltoes -31.7867
2347
root 0.591568 15.4663 3.61788 -1.38457 52.707 2.03829
lowerback 18.5041 -4.92593 -2.86777
upperback 2.19351 -6.67335 3.49105
thorax -7.17384 -3.0762 6.98742
lowerneck -4.87143 -12.1959 -20.6042
upperneck 1.18093 -16.2781 22.7602
head 4.89658 -7.74972 9.21012
rclavicle -2.18663e-014 2.54444e-014
rhumerus -13.9329 -21.4124 -46.8483
rradius 148.81
rwrist -29.9756
rhand -13.405 29.4538
rfingers 7.12502
rthumb 12.7027 -0.139849
lclavicle -2.18663e-014 2.54444e-014
lhumerus -4.7671 -21.4359 90.7233
lradius 134.637
lwrist 9.19556
lhand -12.0553 7.739
lfingers 7.12502
lthumb 14.0037 37.2473
rfemur -34.5786 -9.87585 -4.37861
rtibia 52.1264
rfoot -5.60544 2.25186
rtoes -32.4549
lfemur 8.77605 3.10216 2.75483
ltibia 36.4104
lfoot -33.7851 -4.17866
ltoes -33.0759
